# xmcd
#
# Track frame offsets:
#	150
#	10077
#	26422
#	41520
#	59580
#	75317
#	89133
#	104489
#	118744
#	132123
#	145727
#	159458
#	172142
#	186883
#	201142
#	212228
#	225378
#	235802
#	248399
#	260202
#	274840
#	291183
#	304771
#
# Disc length: 4335 seconds
#
# Revision: 1
# Processed by: cddbd v1.5.2PL0 Copyright (c) Steve Scherf et al.
# Submitted via: audiograbber 1.83.01
#
DISCID=4810ed17
DTITLE=Various Artist - Exitos De Hoy
DYEAR=1900
DGENRE=
TTITLE0=El Hyphy - Los Amos
TTITLE1=Vive Y Dejame Vivir - Cuisillos
TTITLE2=Borracho y Desgraciado - Exterminadores
TTITLE3=En La Habitacion - Raul Hernandez
TTITLE4=El Primer Tiempo - La Arrolladora
TTITLE5=El Hijo Del Pueblo - Tigres
TTITLE6=Vuelve Conmigo - Tierra Cali
TTITLE7=Mi Venganza - Banda Viojo Oeste
TTITLE8=De Que Me Presumes - Lupillo
TTITLE9=A Punto De Llorar - Rieleros
TTITLE10=Manana - Los Primos
TTITLE11=Las Edades - Roberto Tapia
TTITLE12=Mori - Banda Guasavena
TTITLE13=La Imagen De Malverde - Montez
TTITLE14=Las Mujeres - Valentin Ceja
TTITLE15=Innolvidable - Jenny Rivera
TTITLE16=Te Quiero Mucho - Patrulla
TTITLE17=Flor De Las Flores - Los Cardenales
TTITLE18=Pienso En Ti - Joan Sebastian
TTITLE19=Te Estoy Esperando - Dinastia
TTITLE20=Te Amo - Horoscopos
TTITLE21=Solo Falta Ella - Reyes
TTITLE22=????
EXTD=
EXTT0=
EXTT1=
EXTT2=
EXTT3=
EXTT4=
EXTT5=
EXTT6=
EXTT7=
EXTT8=
EXTT9=
EXTT10=
EXTT11=
EXTT12=
EXTT13=
EXTT14=
EXTT15=
EXTT16=
EXTT17=
EXTT18=
EXTT19=
EXTT20=
EXTT21=
EXTT22=
PLAYORDER=
